<?xml version="1.0" standalone="no"?>
<!DOCTYPE svg PUBLIC "-//W3C//DTD SVG 20010904//EN"
 "http://www.w3.org/TR/2001/REC-SVG-20010904/DTD/svg10.dtd">
<svg version="1.0" xmlns="http://www.w3.org/2000/svg"
 width="96.000000pt" height="96.000000pt" viewBox="0 0 96.000000 96.000000"
 preserveAspectRatio="xMidYMid meet">

<g transform="translate(0.000000,96.000000) scale(0.100000,-0.100000)"
fill="#00C3FF" stroke="none">
<path d="M312 887 c-12 -13 -22 -31 -22 -40 0 -14 -10 -17 -58 -17 -48 0 -62
-4 -80 -23 -22 -23 -22 -28 -22 -368 l0 -346 23 -21 c23 -22 29 -22 329 -22
l307 0 20 26 c20 26 21 38 21 369 l0 342 -24 22 c-18 17 -33 22 -67 19 -39 -3
-44 -6 -44 -28 0 -22 5 -25 38 -28 l37 -3 0 -330 0 -329 -290 0 -290 0 0 330
0 330 51 0 c36 0 58 -6 76 -20 23 -18 41 -20 169 -20 142 0 143 0 163 26 30
38 28 103 -2 132 -22 21 -33 22 -168 22 -139 0 -146 -1 -167 -23z m298 -67 l0
-30 -130 0 -130 0 0 30 0 30 130 0 130 0 0 -30z"/>
<path d="M494 635 c-14 -35 3 -46 68 -43 60 3 63 4 63 28 0 24 -3 25 -63 28
-49 2 -64 0 -68 -13z"/>
<path d="M376 575 c-46 -32 -50 -33 -72 -18 -19 12 -27 13 -39 3 -8 -7 -15
-16 -15 -20 0 -15 52 -70 66 -70 8 0 46 21 85 47 54 36 69 51 67 67 -5 32 -38
29 -92 -9z"/>
<path d="M494 515 c-3 -8 -3 -22 0 -30 5 -13 23 -15 108 -13 102 3 103 3 103
28 0 25 -1 25 -103 28 -85 2 -103 0 -108 -13z"/>
<path d="M494 355 c-14 -35 3 -46 68 -43 60 3 63 4 63 28 0 24 -3 25 -63 28
-49 2 -64 0 -68 -13z"/>
<path d="M376 295 c-46 -32 -50 -33 -72 -18 -19 12 -27 13 -39 3 -8 -7 -15
-16 -15 -20 0 -15 52 -70 66 -70 8 0 46 21 85 47 54 36 69 51 67 67 -5 32 -38
29 -92 -9z"/>
<path d="M494 235 c-3 -8 -3 -22 0 -30 5 -13 23 -15 108 -13 102 3 103 3 103
28 0 25 -1 25 -103 28 -85 2 -103 0 -108 -13z"/>
</g>
</svg>
